HIERARCHY
ROOT hip
{
  OFFSET 0 0 0
  CHANNELS 6 Xposition Yposition Zposition Zrotation Yrotation Xrotation
  JOINT abdomen
  {
    OFFSET 0 20.6881 -0.73152
    CHANNELS 3 Zrotation Xrotation Yrotation
    JOINT chest
    {
      OFFSET 0 11.7043 -0.48768
      CHANNELS 3 Zrotation Xrotation Yrotation
      JOINT neck
      {
        OFFSET 0 22.1894 -2.19456
        CHANNELS 3 Zrotation Xrotation Yrotation
        JOINT head
        {
          OFFSET -0.24384 7.07133 1.2192
          CHANNELS 3 Zrotation Xrotation Yrotation
          JOINT leftEye
          {
            OFFSET 4.14528 8.04674 8.04672
            CHANNELS 3 Zrotation Xrotation Yrotation
            End Site
            {
              OFFSET 1 0 0
            }
          }
          JOINT rightEye
          {
            OFFSET -3.6576 8.04674 8.04672
            CHANNELS 3 Zrotation Xrotation Yrotation
            End Site
            {
              OFFSET 1 0 0
            }
          }
        }
      }
      JOINT rCollar
      {
        OFFSET -2.68224 19.2634 -4.8768
        CHANNELS 3 Zrotation Xrotation Yrotation
        JOINT rShldr
        {
          OFFSET -8.77824 -1.95073 1.46304
          CHANNELS 3 Zrotation Xrotation Yrotation
          JOINT rForeArm
          {
            OFFSET -28.1742 -1.7115 0.48768
            CHANNELS 3 Zrotation Xrotation Yrotation
            JOINT rHand
            {
              OFFSET -22.5879 0.773209 7.07136
              CHANNELS 3 Zrotation Xrotation Yrotation
              JOINT rThumb1
              {
                OFFSET -1.2192 -0.487915 3.41376
                CHANNELS 3 Zrotation Xrotation Yrotation
                JOINT rThumb2
                {
                  OFFSET -3.37035 -0.52449 3.41376
                  CHANNELS 3 Zrotation Xrotation Yrotation
                  End Site
                  {
                    OFFSET -1.78271 -1.18214 1.43049
                  }
                }
              }
              JOINT rIndex1
              {
                OFFSET -7.75947 0.938293 5.60832
                CHANNELS 3 Zrotation Xrotation Yrotation
                JOINT rIndex2
                {
                  OFFSET -2.54057 -0.884171 1.56538
                  CHANNELS 3 Zrotation Xrotation Yrotation
                  End Site
                  {
                    OFFSET -1.62519 -0.234802 1.16502
                  }
                }
              }
              JOINT rMid1
              {
                OFFSET -8.24714 1.18213 3.41376
                CHANNELS 3 Zrotation Xrotation Yrotation
                JOINT rMid2
                {
                  OFFSET -3.10165 -0.590103 1.0647
                  CHANNELS 3 Zrotation Xrotation Yrotation
                  End Site
                  {
                    OFFSET -2.48547 -0.328903 0.83742
                  }
                }
              }
              JOINT rRing1
              {
                OFFSET -8.82822 0.546677 1.51678
                CHANNELS 3 Zrotation Xrotation Yrotation
                JOINT rRing2
                {
                  OFFSET -2.60934 -0.819778 -0.0198488
                  CHANNELS 3 Zrotation Xrotation Yrotation
                  End Site
                  {
                    OFFSET -2.33842 -0.294052 0.168128
                  }
                }
              }
              JOINT rPinky1
              {
                OFFSET -8.27202 -0.0477905 -0.4584
                CHANNELS 3 Zrotation Xrotation Yrotation
                JOINT rPinky2
                {
                  OFFSET -1.82734 -0.647385 -0.700984
                  CHANNELS 3 Zrotation Xrotation Yrotation
                  End Site
                  {
                    OFFSET -1.69225 -0.51767 -0.607171
                  }
                }
              }
            }
          }
        }
      }
      JOINT lCollar
      {
        OFFSET 2.68224 19.2634 -4.8768
        CHANNELS 3 Zrotation Xrotation Yrotation
        JOINT lShldr
        {
          OFFSET 8.77824 -1.95073 1.46304
          CHANNELS 3 Zrotation Xrotation Yrotation
          JOINT lForeArm
          {
            OFFSET 28.1742 -1.7115 0.48768
            CHANNELS 3 Zrotation Xrotation Yrotation
            JOINT lHand
            {
              OFFSET 22.5879 0.773209 7.07136
              CHANNELS 3 Zrotation Xrotation Yrotation
              JOINT lThumb1
              {
                OFFSET 1.2192 -0.487915 3.41376
                CHANNELS 3 Zrotation Xrotation Yrotation
                JOINT lThumb2
                {
                  OFFSET 3.37035 -0.52449 3.41376
                  CHANNELS 3 Zrotation Xrotation Yrotation
                  End Site
                  {
                    OFFSET 1.78271 -1.18214 1.43049
                  }
                }
              }
              JOINT lIndex1
              {
                OFFSET 7.75947 0.938293 5.60832
                CHANNELS 3 Zrotation Xrotation Yrotation
                JOINT lIndex2
                {
                  OFFSET 2.54057 -0.884171 1.56538
                  CHANNELS 3 Zrotation Xrotation Yrotation
                  End Site
                  {
                    OFFSET 1.62519 -0.234802 1.16502
                  }
                }
              }
              JOINT lMid1
              {
                OFFSET 8.24714 1.18213 3.41376
                CHANNELS 3 Zrotation Xrotation Yrotation
                JOINT lMid2
                {
                  OFFSET 3.10165 -0.590103 1.0647
                  CHANNELS 3 Zrotation Xrotation Yrotation
                  End Site
                  {
                    OFFSET 2.48547 -0.328903 0.83742
                  }
                }
              }
              JOINT lRing1
              {
                OFFSET 8.82822 0.546677 1.51678
                CHANNELS 3 Zrotation Xrotation Yrotation
                JOINT lRing2
                {
                  OFFSET 2.60934 -0.819778 -0.0198488
                  CHANNELS 3 Zrotation Xrotation Yrotation
                  End Site
                  {
                    OFFSET 2.33842 -0.294052 0.168128
                  }
                }
              }
              JOINT lPinky1
              {
                OFFSET 8.27202 -0.0477905 -0.4584
                CHANNELS 3 Zrotation Xrotation Yrotation
                JOINT lPinky2
                {
                  OFFSET 1.82734 -0.647385 -0.700984
                  CHANNELS 3 Zrotation Xrotation Yrotation
                  End Site
                  {
                    OFFSET 1.69225 -0.51767 -0.607171
                  }
                }
              }
            }
          }
        }
      }
    }
  }
  JOINT rButtock
  {
    OFFSET -8.77824 4.35084 1.2192
    CHANNELS 3 Zrotation Xrotation Yrotation
    JOINT rThigh
    {
      OFFSET 0 -1.70687 -2.19456
      CHANNELS 3 Zrotation Xrotation Yrotation
      JOINT rShin
      {
        OFFSET 0 -36.8199 0.73152
        CHANNELS 3 Zrotation Xrotation Yrotation
        JOINT rFoot
        {
          OFFSET 0.73152 -45.1104 -5.12064
          CHANNELS 3 Zrotation Xrotation Yrotation
          End Site
          {
            OFFSET -1.1221 -3.69964 12.103
          }
        }
      }
    }
  }
  JOINT lButtock
  {
    OFFSET 8.77824 4.35084 1.2192
    CHANNELS 3 Zrotation Xrotation Yrotation
    JOINT lThigh
    {
      OFFSET 0 -1.70687 -2.19456
      CHANNELS 3 Zrotation Xrotation Yrotation
      JOINT lShin
      {
        OFFSET 0 -36.8199 0.73152
        CHANNELS 3 Zrotation Xrotation Yrotation
        JOINT lFoot
        {
          OFFSET -0.73152 -45.1104 -5.12064
          CHANNELS 3 Zrotation Xrotation Yrotation
          End Site
          {
            OFFSET 1.1221 -3.69964 12.103
          }
        }
      }
    }
  }
}
MOTION
Frames:	7
Frame Time:	0.00833333
56.9061 80.4479 107.973 180.207 2.8467 -160.104 -9.27925 5.11656 10.7628 5.00417 -0.37182 3.02666 -3.73427 9.84739 -2.83359 7.46239 -14.5528 -4.7699 -0.0 0.0 0.0 -0.0 0.0 0.0 1.42224e-13 -2.48904e-13 6.70021e-14 66.296 27.5775 11.1771 -20.0265 -13.0515 38.7236 -0.00420178 1.95888 0.275394 6.20654e-10 9.61316e-10 -1.31807e-09 1.07562e-09 1.66199e-09 -2.28154e-09 6.20665e-10 9.61296e-10 -1.31808e-09 7.73091 5.47488 0.417314 6.20655e-10 9.61315e-10 -1.31807e-09 2.90554 0.965183 0.102902 6.20657e-10 9.61323e-10 -1.31807e-09 10.2786 0.731801 0.0259123 6.20647e-10 9.61329e-10 -1.31806e-09 2.22167 -0.733487 -0.20892 1.4214e-13 -2.48903e-13 6.67924e-14 -60.7756 -8.86549 2.54157 4.07967 -1.27095 -7.06313 4.32388 49.5267 -9.43639 4.11868e-09 -1.58764e-09 -9.97334e-10 7.05471e-09 -2.64059e-09 -1.8796e-09 4.11869e-09 -1.58764e-09 -9.9733e-10 -7.73091 5.47488 -0.417314 4.11869e-09 -1.58764e-09 -9.97339e-10 -2.90554 0.965183 -0.102902 4.11868e-09 -1.58764e-09 -9.97339e-10 -10.2786 0.731801 -0.0259123 4.11869e-09 -1.58764e-09 -9.97345e-10 -2.22167 -0.733487 0.20892 -2.03217e-16 0.0 -3.88251e-19 -5.02441 -29.2741 9.02012 -0.326117 45.8152 1.45934 -2.53864 -26.3999 -5.4837 2.03217e-16 0.0 3.88251e-19 3.88823 -40.529 -8.64101 0.211073 34.8181 -0.953536 5.38873 -16.7986 15.0317
56.6024 80.8007 106.837 179.881 2.0332 -159.955 -9.06623 5.61022 9.74792 5.12854 -0.298924 2.74152 -3.72464 9.63221 -2.73603 7.40859 -14.2151 -4.61035 -0.0 0.0 0.0 -0.0 0.0 0.0 1.11688e-13 -1.99381e-13 2.68049e-14 66.521 26.7813 9.3533 -19.6439 -12.5801 37.7916 -0.00715537 2.5538 0.359125 7.14383e-10 3.14706e-10 -8.11854e-10 1.23817e-09 5.43571e-10 -1.40669e-09 7.14391e-10 3.14693e-10 -8.11863e-10 7.73091 5.47488 0.417314 7.14382e-10 3.14704e-10 -8.11856e-10 2.90554 0.965183 0.102902 7.14387e-10 3.1471e-10 -8.11855e-10 10.2786 0.731801 0.0259123 7.14377e-10 3.14714e-10 -8.11846e-10 2.22167 -0.733487 -0.20892 1.11604e-13 -1.99381e-13 2.65688e-14 -60.3944 -3.97564 0.505086 5.05495 -1.66104 -8.78131 3.34897 45.3531 -8.1231 3.11101e-09 -8.92987e-10 -1.17661e-09 5.31778e-09 -1.47534e-09 -2.14423e-09 3.11101e-09 -8.92986e-10 -1.1766e-09 -7.73091 5.47488 -0.417314 3.11101e-09 -8.92986e-10 -1.17661e-09 -2.90554 0.965183 -0.102902 3.11101e-09 -8.92986e-10 -1.17661e-09 -10.2786 0.731801 -0.0259123 3.11102e-09 -8.92983e-10 -1.17662e-09 -2.22167 -0.733487 0.20892 -2.03217e-16 0.0 -3.88251e-19 -5.2171 -31.7445 9.73042 -0.345395 46.1939 1.43238 -2.88841 -25.3875 -6.43127 2.03217e-16 0.0 3.88251e-19 3.40331 -39.343 -8.63406 0.198195 33.5685 -0.893826 5.36259 -16.9169 14.9278
56.3656 81.0757 105.688 179.521 1.6217 -159.869 -8.85693 6.12547 8.68488 5.27752 -0.237031 2.43452 -3.72132 9.42558 -2.62592 7.39393 -13.79 -4.43866 -0.0 0.0 0.0 -0.0 0.0 0.0 7.46301e-14 -1.4797e-13 -1.26189e-14 66.8562 25.9213 7.32027 -19.2468 -12.0996 36.8605 -0.0125915 3.26602 0.459497 8.43503e-10 -3.6056e-10 -2.83836e-10 1.46191e-09 -6.23993e-10 -4.94085e-10 8.43506e-10 -3.60564e-10 -2.83843e-10 7.73091 5.47488 0.417314 8.43499e-10 -3.60562e-10 -2.83842e-10 2.90554 0.965183 0.102902 8.43506e-10 -3.60559e-10 -2.83837e-10 10.2786 0.731801 0.0259123 8.43497e-10 -3.60556e-10 -2.83829e-10 2.22167 -0.733487 -0.20892 7.4544e-14 -1.4797e-13 -1.28876e-14 -59.657 1.42872 -1.69473 6.02718 -2.06989 -10.5224 2.52767 40.6301 -6.89511 2.12061e-09 -2.92079e-10 -1.37239e-09 3.6109e-09 -4.69711e-10 -2.43803e-09 2.12061e-09 -2.92079e-10 -1.37238e-09 -7.73091 5.47488 -0.417314 2.12061e-09 -2.9208e-10 -1.37239e-09 -2.90554 0.965183 -0.102902 2.1206e-09 -2.9208e-10 -1.37239e-09 -10.2786 0.731801 -0.0259123 2.12062e-09 -2.92078e-10 -1.37239e-09 -2.22167 -0.733487 0.20892 -2.03217e-16 0.0 -3.88251e-19 -5.44734 -34.1757 10.523 -0.360356 46.4233 1.40127 -3.20613 -24.2141 -7.40989 2.03217e-16 0.0 3.88251e-19 2.90793 -38.0915 -8.57707 0.187427 32.3394 -0.836141 5.3412 -17.0872 14.8069
56.1877 81.3018 104.528 179.227 1.2696 -159.85 -8.73126 6.66377 7.67903 5.47629 -0.206262 2.12274 -3.73484 9.3941 -2.51556 7.46938 -13.5199 -4.2598 -0.0 0.0 0.0 -0.0 0.0 0.0 4.61623e-14 -1.04958e-13 -3.24516e-14 67.3351 24.9974 5.13424 -18.8969 -11.6846 36.0648 -0.018729 3.90397 0.549527 8.11299e-10 -7.64052e-10 1.1957e-10 1.40643e-09 -1.32177e-09 2.04064e-10 8.11301e-10 -7.6405e-10 1.19563e-10 7.73091 5.47488 0.417314 8.11294e-10 -7.64053e-10 1.19563e-10 2.90554 0.965183 0.102902 8.11302e-10 -7.64052e-10 1.19569e-10 10.2786 0.731801 0.0259123 8.11294e-10 -7.6405e-10 1.19576e-10 2.22167 -0.733487 -0.20892 4.60768e-14 -1.04958e-13 -3.27498e-14 -58.6309 6.0172 -4.08531 6.89275 -2.45666 -12.0899 1.95847 36.4116 -5.94994 1.34295e-09 9.6797e-11 -1.52446e-09 2.27174e-09 1.78133e-10 -2.66784e-09 1.34295e-09 9.67958e-11 -1.52445e-09 -7.73091 5.47488 -0.417314 1.34295e-09 9.67947e-11 -1.52446e-09 -2.90554 0.965183 -0.102902 1.34294e-09 9.67942e-11 -1.52446e-09 -10.2786 0.731801 -0.0259123 1.34296e-09 9.67966e-11 -1.52446e-09 -2.22167 -0.733487 0.20892 -2.03217e-16 0.0 -3.88251e-19 -5.77765 -36.4422 11.1981 -0.367825 46.4407 1.36528 -3.52627 -23.0811 -8.4652 2.03217e-16 0.0 3.88251e-19 2.40043 -36.77 -8.53131 0.179684 31.269 -0.785621 5.33886 -17.3175 14.6966
56.0259 81.4758 103.321 178.831 0.9245 -160.026 -8.7596 7.28676 6.75367 5.75597 -0.243763 1.79813 -3.77802 9.6723 -2.40607 7.69573 -13.5552 -4.06372 -0.0 0.0 0.0 -0.0 0.0 0.0 3.24217e-14 -8.53287e-14 -2.11915e-14 67.9839 24.0082 2.69627 -18.6203 -11.366 35.4382 -0.0245101 4.48731 0.63192 5.00426e-10 -8.51573e-10 4.35996e-10 8.69215e-10 -1.47339e-09 7.53912e-10 5.00428e-10 -8.5157e-10 4.35988e-10 7.73091 5.47488 0.417314 5.0042e-10 -8.51573e-10 4.35992e-10 2.90554 0.965183 0.102902 5.0043e-10 -8.51573e-10 4.35995e-10 10.2786 0.731801 0.0259123 5.00422e-10 -8.5157e-10 4.36002e-10 2.22167 -0.733487 -0.20892 3.23404e-14 -8.53278e-14 -2.15204e-14 -57.347 9.63582 -6.82528 7.60248 -2.79629 -13.3862 1.5259 32.7625 -5.19317 7.80675e-10 2.41553e-11 -1.83074e-09 1.30231e-09 3.93285e-11 -3.17872e-09 7.80672e-10 2.41554e-11 -1.83073e-09 -7.73091 5.47488 -0.417314 7.80675e-10 2.41539e-11 -1.83074e-09 -2.90554 0.965183 -0.102902 7.80665e-10 2.41533e-11 -1.83074e-09 -10.2786 0.731801 -0.0259123 7.80681e-10 2.41552e-11 -1.83074e-09 -2.22167 -0.733487 0.20892 -2.03217e-16 0.0 -3.88251e-19 -6.31201 -38.5117 11.7513 -0.368384 46.2299 1.32906 -3.91036 -22.0792 -9.71408 2.03217e-16 0.0 3.88251e-19 1.83366 -35.3214 -8.51678 0.173364 30.3568 -0.741796 5.35211 -17.5998 14.5921
55.8957 81.5726 102.078 178.344 0.6495 -160.28 -8.8796 7.97309 5.85366 6.09376 -0.328252 1.45577 -3.8437 10.1414 -2.29143 8.03233 -13.7383 -3.85098 -0.0 0.0 0.0 -0.0 0.0 0.0 2.46462e-14 -7.95149e-14 8.96394e-15 68.7446 22.9392 0.0262729 -18.3886 -11.1079 34.9069 -0.0313537 5.09461 0.717844 3.74281e-11 -7.71381e-10 7.1797e-10 6.90485e-11 -1.33495e-09 1.2455e-09 3.74308e-11 -7.71378e-10 7.17959e-10 7.73091 5.47488 0.417314 3.7422e-11 -7.71378e-10 7.17969e-10 2.90554 0.965183 0.102902 3.74324e-11 -7.7138e-10 7.17968e-10 10.2786 0.731801 0.0259123 3.74252e-11 -7.71374e-10 7.17976e-10 2.22167 -0.733487 -0.20892 2.45701e-14 -7.95125e-14 8.60055e-15 -55.7426 12.8787 -9.91003 8.22542 -3.11617 -14.5311 1.162 29.1983 -4.50294 3.46033e-10 -3.74271e-10 -2.25203e-09 5.51852e-10 -6.55101e-10 -3.89705e-09 3.46031e-10 -3.74269e-10 -2.25201e-09 -7.73091 5.47488 -0.417314 3.46034e-10 -3.7427e-10 -2.25202e-09 -2.90554 0.965183 -0.102902 3.46024e-10 -3.74271e-10 -2.25202e-09 -10.2786 0.731801 -0.0259123 3.46038e-10 -3.7427e-10 -2.25203e-09 -2.22167 -0.733487 0.20892 -2.03217e-16 0.0 -3.88251e-19 -7.00813 -40.4542 12.261 -0.36414 45.8241 1.29205 -4.31229 -21.0869 -11.0948 2.03217e-16 0.0 3.88251e-19 1.22311 -33.7669 -8.50199 0.167588 29.5415 -0.701796 5.37513 -17.9333 14.4828
55.8016 81.6158 100.783 177.832 0.2285 -160.582 -8.98044 8.5992 4.96725 6.43479 -0.39218 1.11747 -3.91236 10.5878 -2.17305 8.37789 -13.849 -3.64212 -0.0 0.0 0.0 -0.0 0.0 0.0 1.55988e-14 -6.09788e-14 4.12843e-14 69.5398 21.7861 -2.64819 -18.1867 -10.8885 34.442 -0.0384303 5.62275 0.792744 -4.08575e-10 -5.11722e-10 8.41424e-10 -7.02451e-10 -8.86208e-10 1.46245e-09 -4.08571e-10 -5.11721e-10 8.4141e-10 7.73091 5.47488 0.417314 -4.0858e-10 -5.11716e-10 8.41428e-10 2.90554 0.965183 0.102902 -4.0857e-10 -5.11719e-10 8.41422e-10 10.2786 0.731801 0.0259123 -4.08576e-10 -5.11712e-10 8.4143e-10 2.22167 -0.733487 -0.20892 1.55294e-14 -6.0975e-14 4.08941e-14 -53.9892 15.5543 -13.0788 8.83793 -3.4549 -15.6542 0.890175 25.9612 -3.91819 9.88725e-11 -6.38941e-10 -2.37239e-09 1.28914e-10 -1.11347e-09 -4.10169e-09 9.88719e-11 -6.38935e-10 -2.37238e-09 -7.73091 5.47488 -0.417314 9.88744e-11 -6.38937e-10 -2.37239e-09 -2.90554 0.965183 -0.102902 9.88652e-11 -6.38938e-10 -2.37239e-09 -10.2786 0.731801 -0.0259123 9.88765e-11 -6.38937e-10 -2.3724e-09 -2.22167 -0.733487 0.20892 -2.03217e-16 0.0 -3.88251e-19 -7.75672 -42.3078 12.6212 -0.354704 45.2351 1.24611 -4.61683 -19.9906 -12.3899 2.03217e-16 0.0 3.88251e-19 0.664271 -32.2191 -8.46767 0.163457 28.8702 -0.666595 5.41913 -18.337 14.3879
